<svg width="700pt" height="700pt" viewBox="0 0 700 700" xmlns="http://www.w3.org/2000/svg" xmlns:xlink="http://www.w3.org/1999/xlink"><defs><symbol id="a" overflow="visible"><path d="M18.453-1.11c-.95.5-1.938.876-2.969 1.126S13.374.39 12.25.39c-3.344 0-5.996-.93-7.953-2.797-1.95-1.875-2.922-4.41-2.922-7.61 0-3.218.972-5.757 2.922-7.625 1.957-1.863 4.61-2.797 7.953-2.797 1.125 0 2.203.125 3.234.375s2.02.621 2.969 1.11v4.156c-.96-.656-1.906-1.133-2.844-1.437a9.472 9.472 0 00-2.937-.454c-1.844 0-3.297.594-4.36 1.782-1.062 1.18-1.593 2.808-1.593 4.89 0 2.074.53 3.703 1.593 4.89 1.063 1.18 2.516 1.766 4.36 1.766a9.359 9.359 0 002.937-.453c.938-.312 1.883-.797 2.844-1.453z"/></symbol><symbol id="b" overflow="visible"><path d="M13.5-10.969a6.197 6.197 0 00-1.25-.438 5.765 5.765 0 00-1.266-.14c-1.23 0-2.183.402-2.859 1.203-.668.793-1 1.93-1 3.406V0H2.312v-15.062h4.813v2.468c.625-.976 1.336-1.69 2.14-2.14.801-.457 1.758-.688 2.876-.688.164 0 .343.008.53.016.188.012.458.043.813.094z"/></symbol><symbol id="c" overflow="visible"><path d="M17.344-7.578v1.375H6.094c.113 1.137.52 1.984 1.219 2.547.695.562 1.676.844 2.937.844 1.008 0 2.047-.149 3.11-.454 1.062-.3 2.156-.753 3.28-1.359v3.703a19.935 19.935 0 01-3.421.985A17.997 17.997 0 019.813.39c-2.73 0-4.852-.692-6.36-2.078C1.942-3.07 1.188-5.016 1.188-7.516c0-2.457.738-4.39 2.219-5.796 1.488-1.407 3.53-2.11 6.125-2.11 2.375 0 4.27.715 5.687 2.14 1.414 1.419 2.125 3.321 2.125 5.704zm-4.938-1.594c0-.914-.273-1.656-.812-2.219-.531-.562-1.227-.843-2.078-.843-.938 0-1.7.265-2.281.796-.586.524-.95 1.278-1.094 2.266z"/></symbol><symbol id="d" overflow="visible"><path d="M9.063-6.781c-1 0-1.758.172-2.266.515-.5.344-.75.844-.75 1.5 0 .618.203 1.094.61 1.438s.972.516 1.702.516c.907 0 1.664-.32 2.282-.97.613-.655.921-1.472.921-2.452v-.547zm7.359-1.813V0h-4.86v-2.234c-.648.918-1.374 1.586-2.187 2C8.57.18 7.594.39 6.437.39c-1.554 0-2.82-.453-3.796-1.36-.97-.914-1.454-2.097-1.454-3.547 0-1.77.602-3.066 1.813-3.89 1.219-.82 3.129-1.235 5.734-1.235h2.829v-.375c0-.757-.305-1.316-.907-1.671-.594-.364-1.527-.547-2.797-.547-1.03 0-1.996.105-2.89.312a9.913 9.913 0 00-2.469.938v-3.672a26.627 26.627 0 013.11-.563 24.644 24.644 0 013.124-.203c2.72 0 4.676.54 5.875 1.61 1.207 1.062 1.813 2.804 1.813 5.218z"/></symbol><symbol id="e" overflow="visible"><path d="M7.578-19.344v4.281h4.953v3.438H7.578v6.39c0 .7.133 1.172.406 1.422.282.25.832.375 1.657.375h2.484V0h-4.14c-1.9 0-3.247-.395-4.048-1.188-.793-.789-1.187-2.14-1.187-4.047v-6.39H.36v-3.438h2.39v-4.281z"/></symbol><symbol id="f" overflow="visible"><path d="M12.562-12.859v-8.063h4.844V0h-4.844v-2.17c-.668.886-1.402 1.539-2.203 1.953-.793.406-1.715.61-2.766.61-1.855 0-3.383-.735-4.578-2.204C1.828-3.288 1.234-5.19 1.234-7.514c0-2.32.594-4.219 1.781-5.688 1.195-1.476 2.723-2.218 4.578-2.218 1.04 0 1.961.21 2.766.625.8.418 1.535 1.062 2.203 1.937zM9.39-3.109c1.031 0 1.816-.375 2.36-1.125.539-.75.812-1.844.812-3.281s-.273-2.531-.812-3.281c-.543-.758-1.329-1.141-2.36-1.141-1.023 0-1.805.383-2.344 1.14-.543.75-.812 1.844-.812 3.282s.27 2.531.812 3.281c.54.75 1.32 1.125 2.344 1.125z"/></symbol><symbol id="g" overflow="visible"><path d="M10.328-3.11c1.031 0 1.816-.374 2.36-1.124.538-.75.812-1.844.812-3.282s-.274-2.53-.813-3.28c-.543-.759-1.328-1.141-2.359-1.141s-1.824.382-2.375 1.14c-.555.762-.828 1.856-.828 3.281 0 1.43.273 2.524.828 3.282.55.75 1.344 1.125 2.375 1.125zm-3.203-9.75c.664-.874 1.398-1.519 2.203-1.937.813-.414 1.742-.625 2.797-.625 1.852 0 3.375.742 4.562 2.219 1.196 1.469 1.797 3.367 1.797 5.687 0 2.325-.601 4.227-1.797 5.703C15.5-.343 13.977.391 12.125.391 11.07.39 10.14.18 9.328-.234c-.805-.414-1.54-1.063-2.203-1.938V0H2.312v-20.922h4.813z"/></symbol><symbol id="h" overflow="visible"><path d="M.344-15.062h4.812L9.203-4.843l3.438-10.219h4.812L11.125 1.422c-.637 1.676-1.383 2.848-2.234 3.516-.844.664-1.961 1-3.344 1H2.75V2.78h1.516c.812 0 1.406-.132 1.78-.39.376-.262.66-.727.86-1.39l.14-.423z"/></symbol><symbol id="i" overflow="visible"><path d="M2.531-20.078h6.594l4.563 10.75 4.609-10.75h6.578V0h-4.906v-14.688L15.344-3.86h-3.281L7.438-14.688V0H2.53z"/></symbol><symbol id="j" overflow="visible"><path d="M2.156-5.86v-9.202H7v1.5c0 .824-.008 1.851-.016 3.078-.011 1.23-.015 2.054-.015 2.468 0 1.211.031 2.086.093 2.625.063.532.172.918.329 1.157.195.312.453.558.765.734.32.168.688.25 1.094.25 1.008 0 1.8-.383 2.375-1.156.57-.77.86-1.844.86-3.219v-7.438h4.812V0h-4.813v-2.171c-.73.875-1.5 1.523-2.312 1.937S8.46.39 7.484.39c-1.742 0-3.062-.53-3.968-1.594-.907-1.07-1.36-2.625-1.36-4.656z"/></symbol><symbol id="k" overflow="visible"><path d="M17.453-9.172V0h-4.844v-7.016c0-1.3-.031-2.195-.094-2.687-.054-.5-.148-.863-.28-1.094a2.174 2.174 0 00-.782-.734 2.255 2.255 0 00-1.094-.266c-1.012 0-1.805.39-2.375 1.172-.574.773-.86 1.844-.86 3.219V0H2.313v-15.062h4.813v2.203c.726-.875 1.5-1.52 2.312-1.937a5.919 5.919 0 012.703-.625c1.739 0 3.055.53 3.953 1.593.907 1.063 1.36 2.618 1.36 4.657z"/></symbol><symbol id="l" overflow="visible"><path d="M14.719-3.656H6.625L5.344 0H.141l7.437-20.078h6.172L21.188 0h-5.203zM7.906-7.391h5.5l-2.734-7.984z"/></symbol><symbol id="m" overflow="visible"><path d="M2.813-5.203h4.843V0H2.813z"/></symbol><symbol id="n" overflow="visible"><path d="M16.5-19.453v4.25a18.795 18.795 0 00-3.234-1.11 12.74 12.74 0 00-2.97-.374c-1.23 0-2.14.171-2.734.515-.593.336-.89.86-.89 1.578 0 .543.195.965.594 1.266.406.293 1.128.547 2.171.766l2.204.437c2.238.45 3.828 1.133 4.765 2.047.945.918 1.422 2.219 1.422 3.906 0 2.219-.664 3.871-1.984 4.953C14.53-.145 12.524.391 9.828.391A20.008 20.008 0 016 .016a23.906 23.906 0 01-3.844-1.063v-4.375c1.281.688 2.52 1.203 3.719 1.547 1.195.344 2.348.516 3.453.516 1.133 0 2-.188 2.594-.563.601-.383.906-.926.906-1.625 0-.625-.203-1.101-.61-1.437-.406-.344-1.218-.649-2.437-.922l-2-.453c-2.012-.426-3.48-1.11-4.406-2.047-.93-.946-1.39-2.219-1.39-3.813 0-2 .64-3.535 1.921-4.61 1.29-1.07 3.149-1.609 5.578-1.609 1.102 0 2.239.086 3.407.25 1.164.157 2.367.403 3.609.735z"/></symbol><symbol id="o" overflow="visible"><path d="M12.234-20.922v3.156H9.562c-.68 0-1.152.125-1.422.375-.273.242-.406.668-.406 1.281v1.047h4.11v3.438h-4.11V0H2.921v-11.625H.531v-3.438h2.39v-1.047c0-1.644.454-2.859 1.36-3.64.914-.781 2.336-1.172 4.265-1.172z"/></symbol><symbol id="p" overflow="visible"><path d="M2.313-15.062h4.812V0H2.312zm0-5.86h4.812v3.923H2.312z"/></symbol><symbol id="q" overflow="visible"><path d="M17.453-9.172V0h-4.844v-7c0-1.313-.031-2.21-.094-2.703-.054-.5-.148-.863-.28-1.094a2.174 2.174 0 00-.782-.734 2.255 2.255 0 00-1.094-.266c-1.012 0-1.805.39-2.375 1.172-.574.773-.86 1.844-.86 3.219V0H2.313v-20.922h4.813v8.063c.726-.876 1.5-1.52 2.312-1.938a5.919 5.919 0 012.703-.625c1.739 0 3.055.531 3.953 1.594.907 1.062 1.36 2.617 1.36 4.656z"/></symbol><symbol id="r" overflow="visible"><path d="M9.484-11.984c-1.074 0-1.89.387-2.453 1.156-.554.762-.828 1.867-.828 3.313 0 1.437.274 2.543.828 3.312.563.774 1.38 1.156 2.453 1.156 1.051 0 1.852-.382 2.407-1.156.55-.77.828-1.875.828-3.312 0-1.446-.278-2.551-.828-3.313-.555-.77-1.356-1.156-2.407-1.156zm0-3.438c2.594 0 4.614.7 6.063 2.094 1.457 1.399 2.187 3.336 2.187 5.813 0 2.469-.73 4.406-2.187 5.812C14.097-.304 12.078.391 9.484.391c-2.605 0-4.64-.695-6.109-2.094-1.46-1.406-2.187-3.343-2.187-5.812 0-2.477.726-4.414 2.187-5.813 1.469-1.394 3.504-2.094 6.11-2.094z"/></symbol><symbol id="s" overflow="visible"><path d="M16.281-12.562c.602-.938 1.32-1.645 2.156-2.125a5.452 5.452 0 012.781-.734c1.727 0 3.047.53 3.953 1.593s1.36 2.618 1.36 4.657V0h-4.844v-7.86a5.05 5.05 0 00.016-.36v-.53c0-1.07-.157-1.848-.469-2.329-.313-.476-.82-.718-1.516-.718-.918 0-1.625.382-2.125 1.14-.492.75-.746 1.84-.765 3.266V0h-4.844v-7.859c0-1.664-.148-2.738-.438-3.219-.28-.476-.793-.719-1.53-.719-.919 0-1.634.383-2.141 1.141-.5.762-.75 1.844-.75 3.25V0H2.28v-15.062h4.844v2.203c.593-.851 1.27-1.492 2.03-1.922a5.17 5.17 0 012.548-.64c1.039 0 1.957.25 2.75.75.8.5 1.41 1.203 1.828 2.11z"/></symbol><symbol id="t" overflow="visible"><path d="M2.531-20.078h5.781L15.61-6.312v-13.766h4.922V0h-5.797L7.437-13.781V0H2.531z"/></symbol><symbol id="u" overflow="visible"><path d="M2.531-20.078h8.594c2.55 0 4.508.57 5.875 1.703 1.375 1.137 2.063 2.75 2.063 4.844 0 2.105-.688 3.727-2.063 4.86-1.367 1.136-3.324 1.702-5.875 1.702H7.703v6.97H2.531zm5.172 3.75v5.61h2.875c1 0 1.77-.243 2.313-.735.55-.488.828-1.18.828-2.078 0-.895-.278-1.582-.828-2.063-.543-.488-1.313-.734-2.313-.734z"/></symbol><symbol id="v" overflow="visible"><path d="M2.313-15.062h4.812V-.265c0 2.008-.484 3.547-1.453 4.61S3.3 5.937 1.469 5.937h-2.39V2.782h.843c.914 0 1.539-.21 1.875-.625.344-.406.516-1.215.516-2.422zm0-5.86h4.812v3.923H2.312z"/></symbol><symbol id="w" overflow="visible"><path d="M14.484-14.594v3.922a7.733 7.733 0 00-1.969-.984 6.436 6.436 0 00-2.047-.329c-1.344 0-2.39.399-3.14 1.188-.75.781-1.125 1.875-1.125 3.281s.375 2.508 1.125 3.297c.75.781 1.797 1.172 3.14 1.172.75 0 1.461-.11 2.14-.328a6.254 6.254 0 001.876-1.016v3.953a13.44 13.44 0 01-2.297.61A12.63 12.63 0 019.859.39C7.14.39 5.015-.305 3.484-1.703 1.953-3.098 1.187-5.035 1.187-7.516c0-2.488.766-4.426 2.297-5.812 1.531-1.395 3.656-2.094 6.375-2.094.789 0 1.566.07 2.328.203.77.137 1.535.344 2.297.625z"/></symbol></defs><path d="M307.585 27.968c34.007 16.16 50.41 43.656 49.445 72.36-.965 28.704-14.719 152.612 36.3 165.295.215 9.23-.215 20.918 0 30.152-51.885 11.223-36.944 137.23-36.14 165.613.806 28.383-15.597 55.878-49.605 72.04v-28.22c51.008-15.21 29.152-91.749 37.545-151.784 8.395-60.036 31.2-72.483 31.2-72.483s-23.192-13.375-31.376-73.112c-8.183-59.742 13.145-135.645-37.366-151.638z" fill="none" stroke="#000" stroke-width="3.578"/><use x="57.367" y="642.621" xlink:href="#a"/><use x="77.578" y="642.621" xlink:href="#b"/><use x="91.16" y="642.621" xlink:href="#c"/><use x="109.84" y="642.621" xlink:href="#d"/><use x="128.426" y="642.621" xlink:href="#e"/><use x="141.59" y="642.621" xlink:href="#c"/><use x="160.27" y="642.621" xlink:href="#f"/><use x="189.57" y="642.621" xlink:href="#g"/><use x="209.285" y="642.621" xlink:href="#h"/><use x="236.828" y="642.621" xlink:href="#i"/><use x="264.234" y="642.621" xlink:href="#j"/><use x="283.84" y="642.621" xlink:href="#k"/><use x="303.445" y="642.621" xlink:href="#c"/><use x="322.125" y="642.621" xlink:href="#c"/><use x="340.805" y="642.621" xlink:href="#b"/><use x="363.973" y="642.621" xlink:href="#l"/><use x="385.289" y="642.621" xlink:href="#m"/><use x="395.75" y="642.621" xlink:href="#n"/><use x="415.586" y="642.621" xlink:href="#d"/><use x="434.172" y="642.621" xlink:href="#o"/><use x="446.152" y="642.621" xlink:href="#p"/><use x="455.594" y="642.621" xlink:href="#d"/><use x="474.18" y="642.621" xlink:href="#q"/><use x="57.367" y="670.164" xlink:href="#o"/><use x="69.348" y="670.164" xlink:href="#b"/><use x="82.93" y="670.164" xlink:href="#r"/><use x="101.852" y="670.164" xlink:href="#s"/><use x="140.137" y="670.164" xlink:href="#e"/><use x="153.305" y="670.164" xlink:href="#q"/><use x="172.91" y="670.164" xlink:href="#c"/><use x="201.176" y="670.164" xlink:href="#t"/><use x="224.227" y="670.164" xlink:href="#r"/><use x="243.148" y="670.164" xlink:href="#j"/><use x="262.754" y="670.164" xlink:href="#k"/><use x="291.949" y="670.164" xlink:href="#u"/><use x="312.133" y="670.164" xlink:href="#b"/><use x="325.715" y="670.164" xlink:href="#r"/><use x="344.637" y="670.164" xlink:href="#v"/><use x="354.078" y="670.164" xlink:href="#c"/><use x="372.758" y="670.164" xlink:href="#w"/><use x="389.082" y="670.164" xlink:href="#e"/></svg>