<svg height="64" width="64" xmlns="http://www.w3.org/2000/svg" viewBox="0 0 240.472 240.472"><path d="M119.418 182.784H83.482c-.624 0-1.132.508-1.132 1.136s.508 1.136 1.132 1.136h35.936c.624 0 1.132-.508 1.132-1.136s-.508-1.136-1.132-1.136zm-4.88 6.276h-26.18c-.624 0-1.132.508-1.132 1.136s.508 1.136 1.132 1.136h26.18c.624 0 1.132-.508 1.132-1.136s-.504-1.136-1.132-1.136zm-11.816-79.388c8.644 0 15.676-7.68 15.676-17.12 0-9.188-14.26-23.716-14.872-24.328h-1.608c-.608.612-14.872 15.14-14.872 24.328 0 9.44 7.032 17.12 15.676 17.12zm0-39.012c3.012 3.204 13.412 14.784 13.412 21.892 0 8.188-6.016 14.852-13.412 14.852S89.31 100.74 89.31 92.552c.004-7.104 10.4-18.688 13.412-21.892zM25.39 168.336l-1.132 1.136v50.68l1.132 1.136h33.612l1.132-1.136v-50.68l-1.132-1.136H25.39zm32.484 50.68H26.526v-48.412h31.348v48.412z"/><path d="M230.95 196.98l-1.96-1.684h-14.16c.052-.148.112-.296.16-.444 1.736-5.336 1.692-9.992-.128-13.832-2.784-5.864-9.388-9.356-14.828-11.744a219.9 219.9 0 00-3.424-1.456c-4.492-1.884-9.132-3.828-12.544-6.7-3.656-3.076-5.988-11.144-3.396-15.056a8.442 8.442 0 001.584-2.352l-3.648-1.648c-1.456 3.228-6.776 4.256-11.916 5.248-1.212.232-2.404.464-3.54.72-8.852 2.004-16.904 7.32-22.388 14.54v-58.388c0-15.744-7.204-48.92-24.244-61.848.516-.58.824-1.236.824-2V6.156c-.012.016-.028.028-.04.04-.436-8.152-30.348-8.256-31.628-.336-.04-.056-.084-.104-.12-.16v34.636c0 .684.26 1.28.68 1.816-17.828 13.22-24.096 48.184-24.096 62.032v41.728c-.864-.34-1.752-.572-2.684-.572H58.09v-10.372c0-2.92-3.78-4.796-8.7-5.7l-3.896-37.264c0-.772.084-1.508.16-2.176.18-1.588.352-3.088-.628-4.184-.624-.696-1.548-1.036-2.828-1.036-1.28 0-2.204.34-2.828 1.036-.98 1.096-.808 2.596-.628 4.184.076.668.16 1.404.168 2.028l-3.892 37.368c-3.868.716-7.32 2.036-8.5 3.988l-.212 12.128h-1.36c-9.4 0-15.64 19.048-15.64 23.616v61.812c0 5.44 6.872 9.704 15.64 9.704h34.512c6.58 0 12.088-2.4 14.428-5.896 7.452 2.24 17.524 3.4 27.568 3.4 12.908 0 25.824-1.924 33.164-5.6 4.02 3.348 9.272 6.024 16.24 7.676l40.128.052.44-.048c15.492-3.524 23.656-11.644 26.248-26.22 7.5-.364 13.492-6.78 13.492-14.612 0-.764-.104-1.504-.216-2.244zm-49.464-32.804c3.88 3.264 8.808 5.332 13.576 7.332 1.128.472 2.252.944 3.364 1.432 4.428 1.944 10.58 5.072 12.82 9.796 1.372 2.884 1.352 6.548-.06 10.876-.204.628-.448 1.136-.676 1.684h-14.696c1.208-4.244 1.904-8.676 1.46-12.752-.196-1.752-.548-3.784-1.688-5.62-1.524-2.448-4.136-4.068-6.66-5.632-1.344-.832-2.736-1.696-3.892-2.648-2.428-2-4.356-4.136-5.6-6.72.632.852 1.312 1.632 2.052 2.252zm-5.66-10.984c-.736 8.672 3.192 13.436 7.764 17.204 1.276 1.052 2.736 1.952 4.14 2.828 2.412 1.496 4.688 2.904 5.932 4.904.9 1.448 1.188 3.172 1.352 4.668.42 3.828-.312 8.228-1.584 12.5h-17.62c.148-1.352.216-2.724.1-4.136-.208-2.464-.78-4.88-1.332-7.22-.336-1.416-.672-2.832-.924-4.256-1.62-8.996.036-18.348 2.144-26.804.008.104.012.208.028.312zm-4.416 26.896c.26 1.468.604 2.92.952 4.376.56 2.36 1.084 4.592 1.28 6.888.112 1.352.032 2.66-.124 3.944h-28.22c-.212-4.32.72-8.7 2.892-12.66 1.676-3.064 4.044-5.924 6.328-8.692 3.2-3.876 7.136-8.512 11.076-13.144 2.884-3.392 5.76-6.78 8.352-9.872-2.332 9.056-4.32 19.232-2.536 29.16zm-29.988-11.332c4.732-8.404 13.184-14.692 22.608-16.824 1.092-.248 2.248-.472 3.416-.696 1.304-.252 2.644-.516 3.972-.824-2.38 2.836-4.956 5.868-7.552 8.92-3.944 4.64-7.892 9.284-11.096 13.168-2.352 2.848-4.784 5.796-6.568 9.048-2.36 4.296-3.356 9.052-3.14 13.748h-6.488a22.292 22.292 0 01-.096-1.16c-.6-10.1 1.02-18.404 4.944-25.38zM101.45 2.72c8.1 0 13.06 2.36 13.06 3.648 0 1.288-4.956 3.648-13.06 3.648s-13.06-2.36-13.06-3.648c0-1.288 4.96-3.648 13.06-3.648zm-13.06 7.492c3.024 1.74 8.052 2.64 13.06 2.64s10.036-.9 13.06-2.64v3.732c-1.848 1.64-6.684 3.076-13.06 3.076s-11.208-1.436-13.06-3.076v-3.732zm0 5.156c2.752 1.812 7.988 2.788 13.06 2.788s10.308-.976 13.06-2.788l.004 24.936c-.264.804-4.544 2.828-13.064 2.828s-12.796-2.024-13.06-2.792V15.368zM29.142 143.522c.964.635 2.214 1.162 3.684 1.582l-2.376 4.248c-.768-.356-1.232-.692-1.308-.916v-4.914zm4.764 1.974c.016-.032 0-.064.012-.096 1.344.316 2.804.536 4.312.688l-2.604 4.656c-1.712-.268-3.088-.608-4.116-.968l2.396-4.28zm5.56.72a40.684 40.684 0 005.524-.004l-2.808 5.016c-2.028 0-3.8-.12-5.352-.308l2.636-4.704zm6.904-.148c1.772-.184 3.452-.484 4.96-.9l-2.908 5.628c-1.412.208-3.056.344-4.92.392l2.868-5.12zm6.356-1.316a11.627 11.627 0 002.528-1.232l.004 4.88c-.168.512-1.972 1.512-5.444 2.176 0 0 2.908-5.748 2.912-5.824zm-10.528.424c-6.376 0-11.208-1.436-13.06-3.076v-3.288c3.024 1.74 8.052 2.64 13.06 2.64s10.036-.9 13.06-2.64v3.284c-1.848 1.64-6.684 3.08-13.06 3.08zM41.734 92c0-.884-.092-1.728-.18-2.496-.08-.692-.2-1.74-.088-1.96 0 0 .164-.104.732-.104.572 0 .704.08.704.076.132.264.016 1.3-.064 1.988-.084.768-.18 1.612-.172 2.644l4.092 39.148c0 .816 0 2.98-4.564 2.98s-4.564-2.168-4.572-2.832L41.734 92zm-6.864 40.056c.36 3.212 2.964 5.052 7.324 5.052 4.308 0 6.904-1.8 7.308-5.052 3.66.8 5.752 2.076 5.752 2.908 0 1.288-4.956 3.648-13.06 3.648s-13.06-2.36-13.06-3.648c.004-.828 2.084-2.108 5.736-2.908zm36.256 98.712h-.004c0 2.708-4.988 5.736-11.668 5.736H24.942c-6.68 0-11.672-3.028-11.672-5.736v-61.816c0-4.04 6.08-19.648 11.672-19.648h1.508c1.224 3.724 10.252 4.756 15.748 4.756 5.496 0 14.524-1.032 15.748-4.756h1.512c5.592 0 11.668 15.608 11.668 19.648v61.816zm30.324 3.244c-11.172 0-20.208-1.38-26.368-3.196 0-.016.008-.028.008-.044v-61.82c0-3.376-3.416-14.64-8.984-20.3v-44.468c0-15.488 7.072-48.916 23.936-59.74 3.408 1.136 8.064 1.52 11.408 1.52 3.296 0 7.868-.372 11.264-1.472 16.76 10.932 24.08 44.704 24.08 59.692v64.856c-3.468 7.172-4.892 15.48-4.308 25.336.016.3.068.616.096.92h-8.308l-1.984 1.984c0 11.532 1.464 23.544 9.308 32.216-5.864 2.428-16.388 4.516-30.148 4.516zm115.272-24.168h-.072l-.488-.06-2.136 1.696c-1.4 9.856-5.264 20.484-23.272 24.656h-16.16l8.328-8.776a.962.962 0 00-.036-1.364.963.963 0 00-1.364.036l-9.588 10.104h-8.496l8.328-8.776a.962.962 0 00-.036-1.364.962.962 0 00-1.364.036l-9.588 10.104h-8.496l8.324-8.776a.962.962 0 00-.036-1.364.963.963 0 00-1.364.036l-9.18 9.68c-16.972-4.648-22.36-15.664-23.5-30.94h77.928c.624 0 1.132-.508 1.132-1.136s-.508-1.136-1.132-1.136h-78.08a93.997 93.997 0 01-.104-3.24h100.92c-.012 5.84-4.544 10.584-10.468 10.584z"/></svg>