<svg fill="hsl(0, 2%, 25%)" height="64" width="64" xmlns="http://www.w3.org/2000/svg" viewBox="0 0 266.484 266.484"><path d="M117.863 177.846c-.36-1.084-.312-2.228.132-3.212.42-.932 1.152-1.608 2.064-1.912.452-.148.924-.2 1.42-.144l4.472.52-2.612-3.668c-3.112-4.376-8.316-6.616-13.552-5.844a14.067 14.067 0 00-9.316 5.552 14.077 14.077 0 00-2.66 10.512 14.09 14.09 0 005.556 9.316 14.06 14.06 0 0010.512 2.66c4.772-.696 8.824-3.752 10.836-8.168l1.704-3.74-3.996.968c-1.868.441-3.88-.791-4.56-2.84zm-4.568 9.821a10.132 10.132 0 01-7.544-1.912 10.1 10.1 0 01-3.984-6.684 10.06 10.06 0 011.908-7.544 10.144 10.144 0 018.14-4.092c2.132 0 4.196.684 5.916 1.932-1.484.768-2.66 2.016-3.384 3.612-.864 1.908-.964 4.08-.284 6.124.868 2.616 2.912 4.548 5.3 5.312a10.07 10.07 0 01-6.068 3.252z"/><path d="M203.427 136.711c1.284-1.14 2.896-2.572 4.908-4.364l8.552-7.596-32.304 7.588c-1.108.26-2.688.608-4.2.936l5.328-8.584-3.764.152c-3.008.12-72.644 1.308-94.732 9.28-21.804 7.872-67.416 41.092-69.092 54.94-.412.512-.28 3.672-.28 3.672.008.008.124.088.2.14 0 0 29.24 19.4 59.66 25.552a1.986 1.986 0 002.34-1.552 1.98 1.98 0 00-1.552-2.336c-27.676-5.596-49.968-19.416-56.412-23.708 22.94-16.884 39.064-26.284 53.18-31.624a40.515 40.515 0 00-3.988 24.3c1.58 10.808 7.268 20.352 16.028 26.88 7.132 5.32 15.608 8.116 24.348 8.116 1.988 0 3.988-.144 5.988-.436 10.808-1.576 20.356-7.268 26.884-16.024s9.252-19.532 7.68-30.34c-.756-5.184-2.536-10.036-5.076-14.44 14.736 2.532 30.592 4.772 44.252 2.736 3.548 2.044 6.296 3.784 7.888 4.844-4.296 5.188-18.88 21.756-40.004 34.74a1.987 1.987 0 00-.652 2.732 1.995 1.995 0 002.732.652c25.908-15.924 42.36-37.88 43.02-38.748 0 0-3.06-2.672-7.22-5.38 11.928-3.092 21.592-10.296 26.368-24.776l1.372-4.152-4.04 1.68c-3.428 1.416-10.948 3.823-17.412 5.12zm-55.156 35.568c.156 1.052.24 2.104.304 3.156l-19.536.168a1.13 1.13 0 00-1.124 1.144 1.132 1.132 0 001.132 1.124h.008l19.564-.168c-.004 4.2-.684 8.336-2.08 12.256l-17.976-7.188a1.129 1.129 0 00-1.476.632 1.137 1.137 0 00.632 1.476l17.96 7.18c-1.14 2.664-2.564 5.228-4.34 7.612a37.421 37.421 0 01-2.256 2.736l-13.484-13.26a1.132 1.132 0 00-1.604.012 1.14 1.14 0 00.012 1.604l13.48 13.256a36.405 36.405 0 01-11.792 7.736l-6.764-18.576a1.141 1.141 0 00-1.452-.676 1.136 1.136 0 00-.68 1.456l6.776 18.604a37.501 37.501 0 01-6.5 1.576c-1.784.26-3.56.344-5.332.348l-.168-19.608a1.132 1.132 0 00-1.132-1.124h-.008a1.13 1.13 0 00-1.124 1.144l.168 19.552c-3.968-.236-7.836-1.14-11.512-2.624l7.132-17.836a1.135 1.135 0 00-2.108-.844l-7.116 17.8a37.382 37.382 0 01-6.192-3.74c-1.264-.944-2.432-1.98-3.552-3.056l13.488-13.72a1.136 1.136 0 00-.016-1.604 1.127 1.127 0 00-1.6.012l-13.472 13.704a36.56 36.56 0 01-6.644-10.276l17.616-7.552a1.135 1.135 0 00-.892-2.088l-17.588 7.54a37.142 37.142 0 01-1.812-7.236c-.224-1.536-.32-3.072-.352-4.6l19.488-.168a1.13 1.13 0 001.124-1.144 1.132 1.132 0 00-1.132-1.124h-.008l-19.468.168a36.564 36.564 0 012.304-11.4l18.324 7.324c.14.056.28.084.42.084a1.14 1.14 0 001.056-.712 1.137 1.137 0 00-.632-1.476l-18.292-7.312a37.055 37.055 0 012.964-5.348 99.35 99.35 0 016.952-1.9l11.292 11.1a1.127 1.127 0 001.604-.012 1.14 1.14 0 00-.012-1.604l-10.244-10.072c2.78-.576 5.552-1.044 8.356-1.404l4.732 9.204a1.128 1.128 0 001.528.488c.556-.284.772-.968.488-1.528l-4.344-8.444c2.004-.22 4.024-.42 6.088-.568 6.612-.488 14.944.564 24.004 2.06l-9.872 9.516a1.136 1.136 0 00.784 1.952c.284 0 .568-.104.784-.32l11.08-10.68c2.24.384 4.504.78 6.808 1.184l.816.144a36.983 36.983 0 012.856 4.804l-18.2 7.804c-.58.248-.844.916-.596 1.492a1.14 1.14 0 001.044.688c.148 0 .3-.028.444-.092l18.32-7.856a36.945 36.945 0 012.552 9.1zm-6.548-20.024c-12.952-2.288-25.188-4.444-34.572-3.76-27.9 2.028-47.924 10.524-82.792 35.708 9.352-14.044 44.732-40.948 63.828-47.22 22.324-7.332 74.88-7.276 90.136-7.976l-6.284 10.128 4.576-.96s6-1.26 8.88-1.936l16.924-3.976c-2.888 2.572-15.116 9.724-15.116 9.724l9.852-.4c5.808-.236 14.9-2.684 20.992-4.748-12.032 26.772-46.16 20.76-76.424 15.416zm112.68-96.752a5.47 5.47 0 00-4.204-.048 5.461 5.461 0 00-3.012 2.928 5.347 5.347 0 002.852 7.06c.68.288 1.4.432 2.116.432.692 0 1.384-.132 2.048-.396 2.792-1.112 4.172-4.268 3.072-7.036a5.345 5.345 0 00-2.872-2.94zm-1.044 7.872a3.184 3.184 0 01-2.44-.02 3.062 3.062 0 01-1.68-1.708 3.059 3.059 0 01.032-2.368c.34-.788.968-1.4 1.772-1.72a3.242 3.242 0 011.204-.236c.428 0 .856.088 1.26.26.76.328 1.352.932 1.656 1.696.644 1.608-.168 3.444-1.804 4.096z"/><path d="M265.683 55.087c-1.12-2.812-3.292-5.012-6.112-6.2-2.804-1.184-5.92-1.212-8.828-.052l-70.54 31.672c-1.536-.932-3.068-1.9-4.624-2.748-6.144-3.252-11.984-5.704-17.868-7.488-7.868-2.34-15.244-3.384-22.736-3.228l-1.508.064c-1.724.068-3.504.14-4.704.36l-6.044.952c-3.86.8-7.764 1.98-11.928 3.604-7.156 2.724-13.284 5.928-19.776 9.32l-1.196.624c-6.34 3.432-12.888 7.372-19.48 11.728-.44.3-48.424 34.224-56.752 42.612-.796.804-1.612 1.592-2.428 2.384-2.956 2.856-6.016 5.816-8.236 9.492-2.716 4.504-4.396 11.28-1.116 16.488l1.74 3.484 1.78-1.24s3.12-2.172 8.348-6.068l10.52-7.676c3.304-2.412 6.952-5.072 10.952-7.876 4.404-3.16 9.232-6.476 14.316-9.94a653.075 653.075 0 0116.152-10.604c4.896-3.148 10.016-6.236 15.208-9.364l6.872-4.016c4.492-2.592 9.136-5.276 13.856-7.732 6.072-3.304 12.504-6.728 18.368-9.392 3.184-1.388 5.96-2.444 8.456-3.22l4.364-1.048c1.104-.268 1.876-.372 2.616-.48.504-.072.996-.14 1.444-.228 5.104-.692 10.912-.664 16.796.084.912.112 1.884.292 2.824.44l-7.588 2.488c-.272.108-1.812.732-2.264.916l-7.848 1.672s-10.352 1.988-15.772 4.152c-11.836 4.724-19.14 13.348-16.632 19.64 1.296 3.248 4.848 5.248 9.992 5.624.588.044 1.196.064 1.812.064 4.236 0 9.056-1.004 13.78-2.892 5.412-2.16 14.296-7.844 14.296-7.844l6.628-4.08 2.56-1.028 12.456-5.712c.652-.26 1.36-.632 1.652-1.416.008-.016.004-.032.008-.048l13.552-4.752c.184.06.384.12.564.18l10.956 3.672c1.888.692 3.572 1.232 4.972 1.684.852.276 1.596.512 2.288.756l10.424 3.252-5.868-5.76c-.112-.108-2.808-2.748-7.872-6.92l-.084-.072c-.592-.48-1.232-.996-1.892-1.528l62.676-21.976a11.482 11.482 0 006.292-6.084c1.24-2.796 1.3-5.888.176-8.696zm-111.6 30.339c-6.208-.792-12.372-.824-17.916-.068-.488.092-.92.152-1.364.212-.848.12-1.736.244-2.956.54 0 0-9.22 2.292-13.544 4.512-5.868 3.016-12.516 6.192-18.616 9.512-4.76 2.476-9.448 5.18-13.976 7.8l-6.936 4.056c-5.224 3.148-10.376 6.252-15.296 9.416a667.874 667.874 0 00-16.244 10.664c-5.12 3.488-9.972 6.82-14.384 9.988-4 2.808-7.672 5.484-10.996 7.904l-10.532 7.688a494.23 494.23 0 01-6.328 4.632c-2.004-3.916-.584-8.88 1.328-12.052 1.948-3.232 4.692-5.88 7.592-8.684.836-.812 1.672-1.62 2.492-2.444 7.712-7.776 53.764-40.492 56.136-42.108 6.476-4.276 12.924-8.16 19.136-11.52l1.168-.612c6.388-3.336 12.416-6.488 19.368-9.136 3.972-1.548 7.668-2.668 11.292-3.416l5.872-.92c1.02-.188 2.736-.252 4.244-.312l1.5-.064a56.13 56.13 0 011.424-.016c6.504 0 13.072 1.012 20.02 3.08 5.624 1.708 11.236 4.06 17.128 7.184.708.384 1.404.82 2.104 1.228l-10.82 4.86c-3.884-.868-7.456-1.508-10.896-1.924zm9.188 6.905l-3.968-.5 2.936-.964.512.108c.036.112.068.216.116.34l.404 1.016zm-8.112.859c.056.016 8.744 1.044 8.856.996l.756 1.892-13.512-1.612 3.9-1.276zm-24.74 24.561c-4.868 1.94-9.792 2.852-13.816 2.552-3.484-.256-5.88-1.392-6.568-3.116-1.416-3.548 4.148-10.352 14.4-14.444 5.776-2.304 10.944-2.864 14.704-2.356l3.584 8.984c-2.392 2.948-6.552 6.084-12.304 8.38zm21.148-10.736l-5.412 3.312-5.2-13.032 6.432-1.388c.168-.064.336-.04.508-.04.248 1.292.752 3.024 1.752 5.532.74 1.844 1.532 3.528 2.236 4.748.08.14.196.32.3.492a2.261 2.261 0 01-.616.376zm3.324-1.393c-.212-.276-.46-.692-.72-1.164l2.764.228-2.044.936zm5.464-2.503c-.076-.024-6.924-.544-7.08-.464a51.313 51.313 0 01-1.02-2.368l11.644 1.208-3.544 1.624zm-8.768-4.616c-.276-.772-.5-1.488-.684-2.136 0 0 14.492 1.612 14.604 1.564l.66 1.652c.032.08.064.136.096.212 0 .004-14.508-1.389-14.676-1.292zm44.304-1.813l-6.72-2.252 2.912-1.02a250.748 250.748 0 013.86 3.044l.072.056c.156.128.308.256.46.384a30.097 30.097 0 01-.584-.212zm65.992-34.491c-.804 1.832-2.268 3.248-4.048 3.96l-89.44 31.36-2.492-6.244 86.384-38.784a7.555 7.555 0 012.808-.544c.996 0 1.988.2 2.932.596 1.832.772 3.244 2.196 3.964 4.012v.004c.732 1.816.688 3.816-.108 5.64z"/></svg>