<svg fill="hsl(0, 1%, 48%)" xmlns="http://www.w3.org/2000/svg" width="64" height="64" viewBox="0 0 166.181 166.181" transform="scale(-1 1)"><path d="M25.401 78.906h.253c1.756 0 3.398-.48 4.867-1.25 7.642 8.01 8.844 9.835 13.996 24.104.282.797.551 1.604.87 2.415.221.606.432 1.202.669 1.862.069.2.253.306.367.475 4.4 9.893 11.707 19.785 22.615 28.835 2.462 2.04 4.87 3.902 7.229 5.601.201.664.422 1.328.665 1.987 3.159 8.612 9.49 15.483 17.819 19.338a42.019 42.019 0 0017.682 3.907c15.969 0 31.282-9.086 38.423-24.5.301-.654.295-1.481.047-2.156a2.676 2.676 0 00-2.136-1.73 2.694 2.694 0 00-2.552 1.045c-5.104 6.755-13.421 11.253-22.808 12.329-9.382 1.07-23.91-.633-42.436-13.495-1.469-6.254-.81-12.793 1.938-18.736 2.534-5.479 7.053-9.65 12.727-11.729 5.01-1.835 10.357-1.75 15.325.016-.158 1.514 0 3.043.548 4.499 1.456 3.85 5.189 6.438 9.308 6.438a9.871 9.871 0 003.513-.644c5.131-1.94 7.72-7.688 5.79-12.825-1.883-4.957-7.768-7.667-12.814-5.784a9.879 9.879 0 00-4.393 3.306c-5.785-2.109-11.997-2.262-17.893-.395.089-3.792-1.028-7.162-3.502-9.983-7.792-8.906-25.758-9.365-29.479-9.365h-.005a2.707 2.707 0 00-2.36 1.435 2.712 2.712 0 00.135 2.763c3.807 5.732 4.775 9.202 5.055 12.636.696 8.774 2.046 16.759 10.747 18.141.733.115 1.408.152 2.051.168-2.133 4.968-3.09 10.258-2.776 15.525-.789-.622-1.582-1.26-2.386-1.925-10.984-9.118-18.117-19.095-22.054-28.936-.071-.205-.153-.422-.222-.622-6.064-15.673-4.008-30.929 3.536-41.734.087.063.164.116.243.195 3.878 3.138 8.707 7.04 15.066 7.04 4.709 0 9.305-2.12 14.062-6.48 1.255-1.15 2.215-2.41 3.23-3.744 3.029-3.966 6.449-8.464 19.749-11.565a2.723 2.723 0 001.962-1.803 2.685 2.685 0 00-.554-2.605c-.312-.354-6.998-7.783-18.452-9.54 1.345-2.647 2.109-5.173 2.806-7.488 1.402-4.688 2.42-8.079 7.482-10.963a2.691 2.691 0 001.361-2.426 2.695 2.695 0 00-1.503-2.342c-.232-.116-5.807-2.848-12.814-2.848-5.614 0-13.023 1.777-18.742 9.472C62.797 4.719 54.162.474 53.74.269a2.697 2.697 0 00-3.871 2.552c.641 13.643-2.756 18.162-5.746 22.154-1.01 1.345-1.961 2.61-2.729 4.14-7.947 15.783 1.804 23.15 8.047 27.559-4.952 7.045-7.874 15.71-8.156 25.17-1.7-2.352-3.805-4.704-6.755-7.805 1.021-1.587 1.664-3.443 1.708-5.442a10.516 10.516 0 00-2.921-7.536c-1.957-2.041-4.585-3.206-7.665-3.275-5.782 0-10.42 4.541-10.555 10.331-.151 5.806 4.482 10.657 10.304 10.789zm98.634 77.62a42.219 42.219 0 009.14-2.094c-10.353 6.987-24.011 8.56-36.155 2.938-5.205-2.41-9.484-6.218-12.44-10.984 16.805 9.892 30.311 11.184 39.455 10.14zm-7.351-50.193a4.5 4.5 0 012.525-2.373 4.598 4.598 0 011.604-.301 4.569 4.569 0 014.256 2.927c.886 2.357-.301 4.979-2.632 5.864-2.32.87-5.015-.364-5.858-2.643a4.485 4.485 0 01.105-3.474zm-40.236 5.764c-3.612-.574-5.369-2.621-6.21-13.247-.303-3.691-1.297-7.024-3.288-10.789 7.077.591 16.334 2.552 20.498 7.309 1.841 2.109 2.537 4.604 2.139 7.6-.093.458-.849 1.734-1.956 1.993-1.295-8.332-7.694-10.832-8.003-10.953a2.679 2.679 0 00-3.438 1.566c-.535 1.382.156 2.932 1.521 3.491.211.084 5.013 2.13 4.73 9.592-.496 1.682-1.922 4.087-5.993 3.438zM46.202 31.514c.551-1.097 1.324-2.136 2.226-3.322 2.808-3.739 6.523-8.696 6.879-20.445 3.122 2.547 7.27 7.04 9.147 13.911a2.701 2.701 0 005.028.48c3.742-7.573 9.434-11.412 16.896-11.412 2.199 0 4.245.337 5.943.765-3.389 3.327-4.527 7.14-5.64 10.868-.952 3.17-1.928 6.444-4.401 9.751a2.694 2.694 0 00-.253 2.816 2.688 2.688 0 002.396 1.493c6.858.063 12.169 2.769 15.412 5.036-11.201 3.538-14.953 8.453-17.777 12.176-.902 1.187-1.685 2.215-2.586 3.032-3.71 3.412-7.111 5.068-10.407 5.068-4.448 0-8.282-3.106-11.668-5.838a78.536 78.536 0 00-2.178-1.725c-.696-.527-1.453-1.055-2.241-1.619-6.302-4.461-12.814-9.054-6.776-21.035zM25.762 63.16a5.176 5.176 0 013.636 1.598 5.167 5.167 0 011.424 3.691c-.063 2.79-2.381 5.058-5.16 5.058v2.7l-.132-2.7c-2.845-.063-5.112-2.437-5.049-5.284.061-2.838 2.322-5.063 5.281-5.063z"/></svg>