<svg xmlns="http://www.w3.org/2000/svg" width="64" height="64" viewBox="0 0 390 390"><path d="M390 195s-28.852-32.949-65.068-34.815c30.433-19.723 38.944-62.685 38.944-62.685s-41.462-14.107-73.76 2.385c16.493-32.297 2.384-73.76 2.384-73.76s-42.959 8.512-62.684 38.945C227.951 28.854 195 0 195 0s-32.95 28.854-34.816 65.07C140.461 34.637 97.5 26.124 97.5 26.124s-14.107 41.463 2.385 73.761C67.587 83.392 26.124 97.5 26.124 97.5s8.513 42.961 38.945 62.685C28.854 162.051 0 195 0 195s28.854 32.951 65.069 34.816c-30.433 19.724-38.945 62.685-38.945 62.685s41.463 14.106 73.761-2.385c-16.492 32.297-2.385 73.761-2.385 73.761s42.961-8.513 62.685-38.945C162.05 361.148 195 390 195 390s32.95-28.852 34.816-65.068c19.723 30.433 62.684 38.944 62.684 38.944s14.107-41.462-2.384-73.76c32.297 16.493 73.76 2.384 73.76 2.384s-8.512-42.959-38.944-62.684C361.147 227.951 390 195 390 195zm-128.532-38.375s-3.286 16.552-14.96 24.42c-1.318-.839-10.539-6.419-19.547-4.497 6.167-6.837 5.945-17.609 5.877-19.176 12.652-6.177 28.63-.747 28.63-.747zm-28.093-28.093s5.43 15.979-.747 28.63c-1.565-.067-12.339-.29-19.177 5.877 1.922-9.004-3.653-18.222-4.496-19.546 7.869-11.675 24.42-14.961 24.42-14.961zM195 118.25s12.691 11.122 13.668 25.167c-1.391.726-10.832 5.921-13.669 14.68-2.836-8.757-12.273-13.952-13.667-14.679C182.309 129.372 195 118.25 195 118.25zm-38.375 10.282s16.551 3.287 24.419 14.961c-.841 1.322-6.418 10.542-4.496 19.547-6.838-6.167-17.609-5.945-19.176-5.877-6.177-12.653-.747-28.631-.747-28.631zm.538 28.84c-.068 1.566-.291 12.339 5.877 19.177-9.008-1.923-18.227 3.656-19.547 4.495-11.674-7.869-14.96-24.42-14.96-24.42s15.978-5.429 28.63.748zM118.25 195s11.123-12.692 25.167-13.668c.729 1.395 5.923 10.831 14.679 13.668-8.758 2.838-13.953 12.277-14.68 13.669C129.372 207.691 118.25 195 118.25 195zm10.282 38.376s3.287-16.552 14.961-24.42c1.323.841 10.542 6.418 19.546 4.496-6.168 6.838-5.944 17.612-5.877 19.177-12.651 6.176-28.63.747-28.63.747zm28.093 28.093s-5.43-15.979.748-28.631c1.567.066 12.338.29 19.176-5.878-1.923 9.007 3.657 18.228 4.497 19.547-7.87 11.675-24.421 14.962-24.421 14.962zM195 271.75s-12.693-11.123-13.668-25.167c1.394-.728 10.831-5.922 13.668-14.679 2.838 8.759 12.277 13.953 13.669 14.68C207.691 260.628 195 271.75 195 271.75zm38.375-10.282s-16.552-3.286-24.42-14.961c.841-1.323 6.418-10.542 4.496-19.546 6.838 6.168 17.613 5.943 19.177 5.877 6.177 12.652.747 28.63.747 28.63zm-.538-28.84c.067-1.565.29-12.338-5.877-19.176 9.007 1.922 18.228-3.657 19.547-4.497 11.675 7.869 14.96 24.419 14.96 24.419s-15.978 5.433-28.63-.746zm13.746-23.96c-.728-1.395-5.921-10.831-14.681-13.668 8.758-2.836 13.953-12.273 14.681-13.668C260.628 182.308 271.75 195 271.75 195s-11.122 12.691-25.167 13.668z"/></svg>